<svg xmlns="http://www.w3.org/2000/svg" viewBox="0 0 980 220" role="img" aria-labelledby="title desc">
  <title id="title">Hygiene Care</title>
  <desc id="desc">Hygiene Care logo with washing machine icon and tagline</desc>
  <defs>
    <linearGradient id="washBody" x1="0" y1="0" x2="1" y2="1">
      <stop offset="0" stop-color="#cce9e7" />
      <stop offset="1" stop-color="#b8deda" />
    </linearGradient>
    <linearGradient id="water" x1="0" y1="0" x2="0" y2="1">
      <stop offset="0" stop-color="#5cc8e8" />
      <stop offset="1" stop-color="#0d4d83" />
    </linearGradient>
  </defs>

  <rect x="0" y="0" width="980" height="220" rx="18" fill="#11af98" />

  <g transform="translate(24,22)">
    <rect x="0" y="0" width="160" height="176" rx="16" fill="url(#washBody)" />
    <rect x="0" y="40" width="160" height="4" fill="#0d8e7f" opacity="0.55" />

    <circle cx="80" cy="106" r="49" fill="#0d4f87" />
    <circle cx="80" cy="106" r="42" fill="#eef8ff" />
    <circle cx="80" cy="106" r="35" fill="url(#water)" />

    <path d="M46 112c9 0 12-6 19-6 9 0 11 8 21 8 8 0 10-6 18-6 5 0 8 2 11 4v10H46z" fill="#f7fffb" opacity="0.95" />
    <path d="M45 122c10 0 13-5 21-5 10 0 12 6 21 6 8 0 10-4 17-4 4 0 8 1 11 3v8H45z" fill="#b7f1e8" />

    <g fill="#ffffff" opacity="0.96">
      <path d="M95 82l3 6 6 3-6 3-3 6-3-6-6-3 6-3z" />
      <path d="M66 74l2 4 4 2-4 2-2 4-2-4-4-2 4-2z" />
      <path d="M106 61l2 4 4 2-4 2-2 4-2-4-4-2 4-2z" />
    </g>

    <g fill="#0f927e">
      <path d="M112 12l3 6 6 3-6 3-3 6-3-6-6-3 6-3z" />
      <path d="M89 10l3 5 5 3-5 3-3 5-3-5-5-3 5-3z" />
      <path d="M136 12l3 6 6 3-6 3-3 6-3-6-6-3 6-3z" />
    </g>
  </g>

  <text x="220" y="112" fill="#ffffff" font-family="Manrope, Sora, Segoe UI, sans-serif" font-size="102" font-weight="800" letter-spacing="-2">Hygiene Care</text>
  <text x="432" y="168" fill="#0e3f76" font-family="Manrope, Sora, Segoe UI, sans-serif" font-size="58" font-weight="800" letter-spacing="-1">The Premium Laundry Studio</text>
</svg>
